<?xml version="1.0" encoding="utf-8" standalone="no"?>
<!DOCTYPE svg PUBLIC "-//W3C//DTD SVG 1.1//EN"
  "http://www.w3.org/Graphics/SVG/1.1/DTD/svg11.dtd">
<svg xmlns:xlink="http://www.w3.org/1999/xlink" width="553.170656pt" height="513.36pt" viewBox="0 0 553.170656 513.36" xmlns="http://www.w3.org/2000/svg" version="1.1">
 <metadata>
  <rdf:RDF xmlns:dc="http://purl.org/dc/elements/1.1/" xmlns:cc="http://creativecommons.org/ns#" xmlns:rdf="http://www.w3.org/1999/02/22-rdf-syntax-ns#">
   <cc:Work>
    <dc:type rdf:resource="http://purl.org/dc/dcmitype/StillImage"/>
    <dc:date>2023-11-24T08:27:56.225296</dc:date>
    <dc:format>image/svg+xml</dc:format>
    <dc:creator>
     <cc:Agent>
      <dc:title>Matplotlib v3.7.1, https://matplotlib.org/</dc:title>
     </cc:Agent>
    </dc:creator>
   </cc:Work>
  </rdf:RDF>
 </metadata>
 <defs>
  <style type="text/css">*{stroke-linejoin: round; stroke-linecap: butt}</style>
 </defs>
 <g id="figure_1">
  <g id="patch_1">
   <path d="M 0 513.36 
L 553.170656 513.36 
L 553.170656 -0 
L 0 -0 
z
" style="fill: #ffffff"/>
  </g>
  <g id="patch_2">
   <path d="M 7.2 506.16 
L 506.16 506.16 
L 506.16 7.2 
L 7.2 7.2 
z
" style="fill: #ffffff"/>
  </g>
  <g id="pane3d_1">
   <g id="patch_3">
    <path d="M 44.874921 383.132454 
L 209.647808 245.016553 
L 207.357307 45.828733 
L 34.699188 171.826764 
" style="fill: #f2f2f2; opacity: 0.5; stroke: #f2f2f2; stroke-width: 0.5; stroke-linejoin: miter"/>
   </g>
  </g>
  <g id="pane3d_2">
   <g id="patch_4">
    <path d="M 209.647808 245.016553 
L 474.049501 321.867687 
L 483.485065 115.81907 
L 207.357307 45.828733 
" style="fill: #e6e6e6; opacity: 0.5; stroke: #e6e6e6; stroke-width: 0.5; stroke-linejoin: miter"/>
   </g>
  </g>
  <g id="pane3d_3">
   <g id="patch_5">
    <path d="M 44.874921 383.132454 
L 325.153629 474.67148 
L 474.049501 321.867687 
L 209.647808 245.016553 
" style="fill: #ececec; opacity: 0.5; stroke: #ececec; stroke-width: 0.5; stroke-linejoin: miter"/>
   </g>
  </g>
  <g id="axis3d_1">
   <g id="line2d_1">
    <path d="M 44.874921 383.132454 
L 325.153629 474.67148 
" style="fill: none; stroke: #ffffff; stroke-linecap: square"/>
   </g>
   <g id="Line3DCollection_1">
    <path d="M 66.233122 390.108043 
L 229.878457 250.896804 
L 228.444021 51.1736 
" style="fill: none; stroke: #d3d3d3; stroke-width: 0.8"/>
    <path d="M 98.603003 400.680046 
L 260.513467 259.801192 
L 260.388319 59.270548 
" style="fill: none; stroke: #d3d3d3; stroke-width: 0.8"/>
    <path d="M 131.378649 411.384572 
L 291.500636 268.807939 
L 292.715719 67.464602 
" style="fill: none; stroke: #d3d3d3; stroke-width: 0.8"/>
    <path d="M 164.567739 422.224129 
L 322.846074 277.91882 
L 325.433154 75.757518 
" style="fill: none; stroke: #d3d3d3; stroke-width: 0.8"/>
    <path d="M 198.178145 433.201287 
L 354.556028 287.135652 
L 358.547726 84.151097 
" style="fill: none; stroke: #d3d3d3; stroke-width: 0.8"/>
    <path d="M 232.21794 444.318684 
L 386.636895 296.460293 
L 392.06671 92.647182 
" style="fill: none; stroke: #d3d3d3; stroke-width: 0.8"/>
    <path d="M 266.695407 455.579025 
L 419.095221 305.894647 
L 425.99756 101.247664 
" style="fill: none; stroke: #d3d3d3; stroke-width: 0.8"/>
    <path d="M 301.619041 466.985083 
L 451.937707 315.440661 
L 460.347914 109.954477 
" style="fill: none; stroke: #d3d3d3; stroke-width: 0.8"/>
   </g>
   <g id="xtick_1">
    <g id="line2d_2">
     <path d="M 263.422703 249.937297 
" clip-path="url(#p9db1106fb9)" style="fill: none; stroke: #d3d3d3; stroke-width: 0.8; stroke-linecap: square"/>
    </g>
    <g id="line2d_3">
     <path d="M 67.658234 388.895716 
L 63.376777 392.537903 
" style="fill: none; stroke: #000000; stroke-width: 0.8; stroke-linecap: square"/>
    </g>
    <g id="text_1">
     <!-- a -->
     <g transform="translate(55.042561 414.925773) scale(0.12 -0.12)">
      <defs>
       <path id="DejaVuSans-61" d="M 2194 1759 
Q 1497 1759 1228 1600 
Q 959 1441 959 1056 
Q 959 750 1161 570 
Q 1363 391 1709 391 
Q 2188 391 2477 730 
Q 2766 1069 2766 1631 
L 2766 1759 
L 2194 1759 
z
M 3341 1997 
L 3341 0 
L 2766 0 
L 2766 531 
Q 2569 213 2275 61 
Q 1981 -91 1556 -91 
Q 1019 -91 701 211 
Q 384 513 384 1019 
Q 384 1609 779 1909 
Q 1175 2209 1959 2209 
L 2766 2209 
L 2766 2266 
Q 2766 2663 2505 2880 
Q 2244 3097 1772 3097 
Q 1472 3097 1187 3025 
Q 903 2953 641 2809 
L 641 3341 
Q 956 3463 1253 3523 
Q 1550 3584 1831 3584 
Q 2591 3584 2966 3190 
Q 3341 2797 3341 1997 
z
" transform="scale(0.015625)"/>
      </defs>
      <use xlink:href="#DejaVuSans-61"/>
     </g>
    </g>
   </g>
   <g id="xtick_2">
    <g id="line2d_4">
     <path d="M 263.422703 249.937297 
" clip-path="url(#p9db1106fb9)" style="fill: none; stroke: #d3d3d3; stroke-width: 0.8; stroke-linecap: square"/>
    </g>
    <g id="line2d_5">
     <path d="M 100.013721 399.452575 
L 95.775471 403.140291 
" style="fill: none; stroke: #000000; stroke-width: 0.8; stroke-linecap: square"/>
    </g>
    <g id="text_2">
     <!-- b -->
     <g transform="translate(87.297879 425.616829) scale(0.12 -0.12)">
      <defs>
       <path id="DejaVuSans-62" d="M 3116 1747 
Q 3116 2381 2855 2742 
Q 2594 3103 2138 3103 
Q 1681 3103 1420 2742 
Q 1159 2381 1159 1747 
Q 1159 1113 1420 752 
Q 1681 391 2138 391 
Q 2594 391 2855 752 
Q 3116 1113 3116 1747 
z
M 1159 2969 
Q 1341 3281 1617 3432 
Q 1894 3584 2278 3584 
Q 2916 3584 3314 3078 
Q 3713 2572 3713 1747 
Q 3713 922 3314 415 
Q 2916 -91 2278 -91 
Q 1894 -91 1617 61 
Q 1341 213 1159 525 
L 1159 0 
L 581 0 
L 581 4863 
L 1159 4863 
L 1159 2969 
z
" transform="scale(0.015625)"/>
      </defs>
      <use xlink:href="#DejaVuSans-62"/>
     </g>
    </g>
   </g>
   <g id="xtick_3">
    <g id="line2d_6">
     <path d="M 263.422703 249.937297 
" clip-path="url(#p9db1106fb9)" style="fill: none; stroke: #d3d3d3; stroke-width: 0.8; stroke-linecap: square"/>
    </g>
    <g id="line2d_7">
     <path d="M 132.774499 410.141672 
L 128.580879 413.875776 
" style="fill: none; stroke: #000000; stroke-width: 0.8; stroke-linecap: square"/>
    </g>
    <g id="text_3">
     <!-- c -->
     <g transform="translate(120.602185 436.442169) scale(0.12 -0.12)">
      <defs>
       <path id="DejaVuSans-63" d="M 3122 3366 
L 3122 2828 
Q 2878 2963 2633 3030 
Q 2388 3097 2138 3097 
Q 1578 3097 1268 2742 
Q 959 2388 959 1747 
Q 959 1106 1268 751 
Q 1578 397 2138 397 
Q 2388 397 2633 464 
Q 2878 531 3122 666 
L 3122 134 
Q 2881 22 2623 -34 
Q 2366 -91 2075 -91 
Q 1284 -91 818 406 
Q 353 903 353 1747 
Q 353 2603 823 3093 
Q 1294 3584 2113 3584 
Q 2378 3584 2631 3529 
Q 2884 3475 3122 3366 
z
" transform="scale(0.015625)"/>
      </defs>
      <use xlink:href="#DejaVuSans-63"/>
     </g>
    </g>
   </g>
   <g id="xtick_4">
    <g id="line2d_8">
     <path d="M 263.422703 249.937297 
" clip-path="url(#p9db1106fb9)" style="fill: none; stroke: #d3d3d3; stroke-width: 0.8; stroke-linecap: square"/>
    </g>
    <g id="line2d_9">
     <path d="M 165.948233 420.965507 
L 161.80071 424.74688 
" style="fill: none; stroke: #000000; stroke-width: 0.8; stroke-linecap: square"/>
    </g>
    <g id="text_4">
     <!-- d -->
     <g transform="translate(153.301005 447.40434) scale(0.12 -0.12)">
      <defs>
       <path id="DejaVuSans-64" d="M 2906 2969 
L 2906 4863 
L 3481 4863 
L 3481 0 
L 2906 0 
L 2906 525 
Q 2725 213 2448 61 
Q 2172 -91 1784 -91 
Q 1150 -91 751 415 
Q 353 922 353 1747 
Q 353 2572 751 3078 
Q 1150 3584 1784 3584 
Q 2172 3584 2448 3432 
Q 2725 3281 2906 2969 
z
M 947 1747 
Q 947 1113 1208 752 
Q 1469 391 1925 391 
Q 2381 391 2643 752 
Q 2906 1113 2906 1747 
Q 2906 2381 2643 2742 
Q 2381 3103 1925 3103 
Q 1469 3103 1208 2742 
Q 947 2381 947 1747 
z
" transform="scale(0.015625)"/>
      </defs>
      <use xlink:href="#DejaVuSans-64"/>
     </g>
    </g>
   </g>
   <g id="xtick_5">
    <g id="line2d_10">
     <path d="M 263.422703 249.937297 
" clip-path="url(#p9db1106fb9)" style="fill: none; stroke: #d3d3d3; stroke-width: 0.8; stroke-linecap: square"/>
    </g>
    <g id="line2d_11">
     <path d="M 199.542779 431.926643 
L 195.442867 435.756189 
" style="fill: none; stroke: #000000; stroke-width: 0.8; stroke-linecap: square"/>
    </g>
    <g id="text_5">
     <!-- e -->
     <g transform="translate(187.049435 458.505951) scale(0.12 -0.12)">
      <defs>
       <path id="DejaVuSans-65" d="M 3597 1894 
L 3597 1613 
L 953 1613 
Q 991 1019 1311 708 
Q 1631 397 2203 397 
Q 2534 397 2845 478 
Q 3156 559 3463 722 
L 3463 178 
Q 3153 47 2828 -22 
Q 2503 -91 2169 -91 
Q 1331 -91 842 396 
Q 353 884 353 1716 
Q 353 2575 817 3079 
Q 1281 3584 2069 3584 
Q 2775 3584 3186 3129 
Q 3597 2675 3597 1894 
z
M 3022 2063 
Q 3016 2534 2758 2815 
Q 2500 3097 2075 3097 
Q 1594 3097 1305 2825 
Q 1016 2553 972 2059 
L 3022 2063 
z
" transform="scale(0.015625)"/>
      </defs>
      <use xlink:href="#DejaVuSans-65"/>
     </g>
    </g>
   </g>
   <g id="xtick_6">
    <g id="line2d_12">
     <path d="M 263.422703 249.937297 
" clip-path="url(#p9db1106fb9)" style="fill: none; stroke: #d3d3d3; stroke-width: 0.8; stroke-linecap: square"/>
    </g>
    <g id="line2d_13">
     <path d="M 233.566196 443.02771 
L 229.515454 446.906355 
" style="fill: none; stroke: #000000; stroke-width: 0.8; stroke-linecap: square"/>
    </g>
    <g id="text_6">
     <!-- f -->
     <g transform="translate(222.6909 469.749681) scale(0.12 -0.12)">
      <defs>
       <path id="DejaVuSans-66" d="M 2375 4863 
L 2375 4384 
L 1825 4384 
Q 1516 4384 1395 4259 
Q 1275 4134 1275 3809 
L 1275 3500 
L 2222 3500 
L 2222 3053 
L 1275 3053 
L 1275 0 
L 697 0 
L 697 3053 
L 147 3053 
L 147 3500 
L 697 3500 
L 697 3744 
Q 697 4328 969 4595 
Q 1241 4863 1831 4863 
L 2375 4863 
z
" transform="scale(0.015625)"/>
      </defs>
      <use xlink:href="#DejaVuSans-66"/>
     </g>
    </g>
   </g>
   <g id="xtick_7">
    <g id="line2d_14">
     <path d="M 263.422703 249.937297 
" clip-path="url(#p9db1106fb9)" style="fill: none; stroke: #d3d3d3; stroke-width: 0.8; stroke-linecap: square"/>
    </g>
    <g id="line2d_15">
     <path d="M 268.026749 454.271404 
L 264.026785 458.200098 
" style="fill: none; stroke: #000000; stroke-width: 0.8; stroke-linecap: square"/>
    </g>
    <g id="text_7">
     <!-- g -->
     <g transform="translate(255.494657 481.138276) scale(0.12 -0.12)">
      <defs>
       <path id="DejaVuSans-67" d="M 2906 1791 
Q 2906 2416 2648 2759 
Q 2391 3103 1925 3103 
Q 1463 3103 1205 2759 
Q 947 2416 947 1791 
Q 947 1169 1205 825 
Q 1463 481 1925 481 
Q 2391 481 2648 825 
Q 2906 1169 2906 1791 
z
M 3481 434 
Q 3481 -459 3084 -895 
Q 2688 -1331 1869 -1331 
Q 1566 -1331 1297 -1286 
Q 1028 -1241 775 -1147 
L 775 -588 
Q 1028 -725 1275 -790 
Q 1522 -856 1778 -856 
Q 2344 -856 2625 -561 
Q 2906 -266 2906 331 
L 2906 616 
Q 2728 306 2450 153 
Q 2172 0 1784 0 
Q 1141 0 747 490 
Q 353 981 353 1791 
Q 353 2603 747 3093 
Q 1141 3584 1784 3584 
Q 2172 3584 2450 3431 
Q 2728 3278 2906 2969 
L 2906 3500 
L 3481 3500 
L 3481 434 
z
" transform="scale(0.015625)"/>
      </defs>
      <use xlink:href="#DejaVuSans-67"/>
     </g>
    </g>
   </g>
   <g id="xtick_8">
    <g id="line2d_16">
     <path d="M 263.422703 249.937297 
" clip-path="url(#p9db1106fb9)" style="fill: none; stroke: #d3d3d3; stroke-width: 0.8; stroke-linecap: square"/>
    </g>
    <g id="line2d_17">
     <path d="M 302.932918 465.660493 
L 298.985389 469.640211 
" style="fill: none; stroke: #000000; stroke-width: 0.8; stroke-linecap: square"/>
    </g>
    <g id="text_8">
     <!-- h -->
     <g transform="translate(290.449242 492.674554) scale(0.12 -0.12)">
      <defs>
       <path id="DejaVuSans-68" d="M 3513 2113 
L 3513 0 
L 2938 0 
L 2938 2094 
Q 2938 2591 2744 2837 
Q 2550 3084 2163 3084 
Q 1697 3084 1428 2787 
Q 1159 2491 1159 1978 
L 1159 0 
L 581 0 
L 581 4863 
L 1159 4863 
L 1159 2956 
Q 1366 3272 1645 3428 
Q 1925 3584 2291 3584 
Q 2894 3584 3203 3211 
Q 3513 2838 3513 2113 
z
" transform="scale(0.015625)"/>
      </defs>
      <use xlink:href="#DejaVuSans-68"/>
     </g>
    </g>
   </g>
  </g>
  <g id="axis3d_2">
   <g id="line2d_18">
    <path d="M 474.049501 321.867687 
L 325.153629 474.67148 
" style="fill: none; stroke: #ffffff; stroke-linecap: square"/>
   </g>
   <g id="Line3DCollection_2">
    <path d="M 49.686439 160.889751 
L 59.128192 371.18508 
L 338.08554 461.400159 
" style="fill: none; stroke: #d3d3d3; stroke-width: 0.8"/>
    <path d="M 71.756282 144.784185 
L 80.134281 353.577359 
L 357.126214 441.859743 
" style="fill: none; stroke: #d3d3d3; stroke-width: 0.8"/>
    <path d="M 93.347156 129.028149 
L 100.704208 336.335239 
L 375.750748 422.746389 
" style="fill: none; stroke: #d3d3d3; stroke-width: 0.8"/>
    <path d="M 114.474485 113.610386 
L 120.851416 319.447449 
L 393.972638 404.046247 
" style="fill: none; stroke: #d3d3d3; stroke-width: 0.8"/>
    <path d="M 135.15304 98.520119 
L 140.588806 302.903178 
L 411.804802 385.746061 
" style="fill: none; stroke: #d3d3d3; stroke-width: 0.8"/>
    <path d="M 155.396969 83.747021 
L 159.928753 286.692051 
L 429.259608 367.833135 
" style="fill: none; stroke: #d3d3d3; stroke-width: 0.8"/>
    <path d="M 175.219832 69.281199 
L 178.883145 270.804104 
L 446.348912 350.295306 
" style="fill: none; stroke: #d3d3d3; stroke-width: 0.8"/>
    <path d="M 194.63463 55.113163 
L 197.463396 255.229769 
L 463.084073 333.120913 
" style="fill: none; stroke: #d3d3d3; stroke-width: 0.8"/>
   </g>
   <g id="xtick_9">
    <g id="line2d_19">
     <path d="M 263.422703 249.937297 
" clip-path="url(#p9db1106fb9)" style="fill: none; stroke: #d3d3d3; stroke-width: 0.8; stroke-linecap: square"/>
    </g>
    <g id="line2d_20">
     <path d="M 335.734939 460.639972 
L 342.792811 462.922495 
" style="fill: none; stroke: #000000; stroke-width: 0.8; stroke-linecap: square"/>
    </g>
    <g id="text_9">
     <!-- 1 -->
     <g transform="translate(347.12629 483.916516) scale(0.12 -0.12)">
      <defs>
       <path id="DejaVuSans-31" d="M 794 531 
L 1825 531 
L 1825 4091 
L 703 3866 
L 703 4441 
L 1819 4666 
L 2450 4666 
L 2450 531 
L 3481 531 
L 3481 0 
L 794 0 
L 794 531 
z
" transform="scale(0.015625)"/>
      </defs>
      <use xlink:href="#DejaVuSans-31"/>
     </g>
    </g>
   </g>
   <g id="xtick_10">
    <g id="line2d_21">
     <path d="M 263.422703 249.937297 
" clip-path="url(#p9db1106fb9)" style="fill: none; stroke: #d3d3d3; stroke-width: 0.8; stroke-linecap: square"/>
    </g>
    <g id="line2d_22">
     <path d="M 354.793479 441.116258 
L 361.797641 443.348612 
" style="fill: none; stroke: #000000; stroke-width: 0.8; stroke-linecap: square"/>
    </g>
    <g id="text_10">
     <!-- 2 -->
     <g transform="translate(366.030859 464.221865) scale(0.12 -0.12)">
      <defs>
       <path id="DejaVuSans-32" d="M 1228 531 
L 3431 531 
L 3431 0 
L 469 0 
L 469 531 
Q 828 903 1448 1529 
Q 2069 2156 2228 2338 
Q 2531 2678 2651 2914 
Q 2772 3150 2772 3378 
Q 2772 3750 2511 3984 
Q 2250 4219 1831 4219 
Q 1534 4219 1204 4116 
Q 875 4013 500 3803 
L 500 4441 
Q 881 4594 1212 4672 
Q 1544 4750 1819 4750 
Q 2544 4750 2975 4387 
Q 3406 4025 3406 3419 
Q 3406 3131 3298 2873 
Q 3191 2616 2906 2266 
Q 2828 2175 2409 1742 
Q 1991 1309 1228 531 
z
" transform="scale(0.015625)"/>
      </defs>
      <use xlink:href="#DejaVuSans-32"/>
     </g>
    </g>
   </g>
   <g id="xtick_11">
    <g id="line2d_23">
     <path d="M 263.422703 249.937297 
" clip-path="url(#p9db1106fb9)" style="fill: none; stroke: #d3d3d3; stroke-width: 0.8; stroke-linecap: square"/>
    </g>
    <g id="line2d_24">
     <path d="M 373.435664 422.01906 
L 380.386765 424.202882 
" style="fill: none; stroke: #000000; stroke-width: 0.8; stroke-linecap: square"/>
    </g>
    <g id="text_11">
     <!-- 3 -->
     <g transform="translate(384.522135 444.95778) scale(0.12 -0.12)">
      <defs>
       <path id="DejaVuSans-33" d="M 2597 2516 
Q 3050 2419 3304 2112 
Q 3559 1806 3559 1356 
Q 3559 666 3084 287 
Q 2609 -91 1734 -91 
Q 1441 -91 1130 -33 
Q 819 25 488 141 
L 488 750 
Q 750 597 1062 519 
Q 1375 441 1716 441 
Q 2309 441 2620 675 
Q 2931 909 2931 1356 
Q 2931 1769 2642 2001 
Q 2353 2234 1838 2234 
L 1294 2234 
L 1294 2753 
L 1863 2753 
Q 2328 2753 2575 2939 
Q 2822 3125 2822 3475 
Q 2822 3834 2567 4026 
Q 2313 4219 1838 4219 
Q 1578 4219 1281 4162 
Q 984 4106 628 3988 
L 628 4550 
Q 988 4650 1302 4700 
Q 1616 4750 1894 4750 
Q 2613 4750 3031 4423 
Q 3450 4097 3450 3541 
Q 3450 3153 3228 2886 
Q 3006 2619 2597 2516 
z
" transform="scale(0.015625)"/>
      </defs>
      <use xlink:href="#DejaVuSans-33"/>
     </g>
    </g>
   </g>
   <g id="xtick_12">
    <g id="line2d_25">
     <path d="M 263.422703 249.937297 
" clip-path="url(#p9db1106fb9)" style="fill: none; stroke: #d3d3d3; stroke-width: 0.8; stroke-linecap: square"/>
    </g>
    <g id="line2d_26">
     <path d="M 391.67499 403.334554 
L 398.573676 405.47141 
" style="fill: none; stroke: #000000; stroke-width: 0.8; stroke-linecap: square"/>
    </g>
    <g id="text_12">
     <!-- 4 -->
     <g transform="translate(402.613523 426.110295) scale(0.12 -0.12)">
      <defs>
       <path id="DejaVuSans-34" d="M 2419 4116 
L 825 1625 
L 2419 1625 
L 2419 4116 
z
M 2253 4666 
L 3047 4666 
L 3047 1625 
L 3713 1625 
L 3713 1100 
L 3047 1100 
L 3047 0 
L 2419 0 
L 2419 1100 
L 313 1100 
L 313 1709 
L 2253 4666 
z
" transform="scale(0.015625)"/>
      </defs>
      <use xlink:href="#DejaVuSans-34"/>
     </g>
    </g>
   </g>
   <g id="xtick_13">
    <g id="line2d_27">
     <path d="M 263.422703 249.937297 
" clip-path="url(#p9db1106fb9)" style="fill: none; stroke: #d3d3d3; stroke-width: 0.8; stroke-linecap: square"/>
    </g>
    <g id="line2d_28">
     <path d="M 409.524377 385.049505 
L 416.371287 387.140893 
" style="fill: none; stroke: #000000; stroke-width: 0.8; stroke-linecap: square"/>
    </g>
    <g id="text_13">
     <!-- 5 -->
     <g transform="translate(420.317858 407.66604) scale(0.12 -0.12)">
      <defs>
       <path id="DejaVuSans-35" d="M 691 4666 
L 3169 4666 
L 3169 4134 
L 1269 4134 
L 1269 2991 
Q 1406 3038 1543 3061 
Q 1681 3084 1819 3084 
Q 2600 3084 3056 2656 
Q 3513 2228 3513 1497 
Q 3513 744 3044 326 
Q 2575 -91 1722 -91 
Q 1428 -91 1123 -41 
Q 819 9 494 109 
L 494 744 
Q 775 591 1075 516 
Q 1375 441 1709 441 
Q 2250 441 2565 725 
Q 2881 1009 2881 1497 
Q 2881 1984 2565 2268 
Q 2250 2553 1709 2553 
Q 1456 2553 1204 2497 
Q 953 2441 691 2322 
L 691 4666 
z
" transform="scale(0.015625)"/>
      </defs>
      <use xlink:href="#DejaVuSans-35"/>
     </g>
    </g>
   </g>
   <g id="xtick_14">
    <g id="line2d_29">
     <path d="M 263.422703 249.937297 
" clip-path="url(#p9db1106fb9)" style="fill: none; stroke: #d3d3d3; stroke-width: 0.8; stroke-linecap: square"/>
    </g>
    <g id="line2d_30">
     <path d="M 426.996197 367.151239 
L 433.791966 369.198595 
" style="fill: none; stroke: #000000; stroke-width: 0.8; stroke-linecap: square"/>
    </g>
    <g id="text_14">
     <!-- 6 -->
     <g transform="translate(437.647428 389.612212) scale(0.12 -0.12)">
      <defs>
       <path id="DejaVuSans-36" d="M 2113 2584 
Q 1688 2584 1439 2293 
Q 1191 2003 1191 1497 
Q 1191 994 1439 701 
Q 1688 409 2113 409 
Q 2538 409 2786 701 
Q 3034 994 3034 1497 
Q 3034 2003 2786 2293 
Q 2538 2584 2113 2584 
z
M 3366 4563 
L 3366 3988 
Q 3128 4100 2886 4159 
Q 2644 4219 2406 4219 
Q 1781 4219 1451 3797 
Q 1122 3375 1075 2522 
Q 1259 2794 1537 2939 
Q 1816 3084 2150 3084 
Q 2853 3084 3261 2657 
Q 3669 2231 3669 1497 
Q 3669 778 3244 343 
Q 2819 -91 2113 -91 
Q 1303 -91 875 529 
Q 447 1150 447 2328 
Q 447 3434 972 4092 
Q 1497 4750 2381 4750 
Q 2619 4750 2861 4703 
Q 3103 4656 3366 4563 
z
" transform="scale(0.015625)"/>
      </defs>
      <use xlink:href="#DejaVuSans-36"/>
     </g>
    </g>
   </g>
   <g id="xtick_15">
    <g id="line2d_31">
     <path d="M 263.422703 249.937297 
" clip-path="url(#p9db1106fb9)" style="fill: none; stroke: #d3d3d3; stroke-width: 0.8; stroke-linecap: square"/>
    </g>
    <g id="line2d_32">
     <path d="M 444.102305 349.627611 
L 450.847562 351.632311 
" style="fill: none; stroke: #000000; stroke-width: 0.8; stroke-linecap: square"/>
    </g>
    <g id="text_15">
     <!-- 7 -->
     <g transform="translate(454.614009 371.936544) scale(0.12 -0.12)">
      <defs>
       <path id="DejaVuSans-37" d="M 525 4666 
L 3525 4666 
L 3525 4397 
L 1831 0 
L 1172 0 
L 2766 4134 
L 525 4134 
L 525 4666 
z
" transform="scale(0.015625)"/>
      </defs>
      <use xlink:href="#DejaVuSans-37"/>
     </g>
    </g>
   </g>
   <g id="xtick_16">
    <g id="line2d_33">
     <path d="M 263.422703 249.937297 
" clip-path="url(#p9db1106fb9)" style="fill: none; stroke: #d3d3d3; stroke-width: 0.8; stroke-linecap: square"/>
    </g>
    <g id="line2d_34">
     <path d="M 460.854064 332.466981 
L 467.549433 334.430344 
" style="fill: none; stroke: #000000; stroke-width: 0.8; stroke-linecap: square"/>
    </g>
    <g id="text_16">
     <!-- 8 -->
     <g transform="translate(471.228887 354.627277) scale(0.12 -0.12)">
      <defs>
       <path id="DejaVuSans-38" d="M 2034 2216 
Q 1584 2216 1326 1975 
Q 1069 1734 1069 1313 
Q 1069 891 1326 650 
Q 1584 409 2034 409 
Q 2484 409 2743 651 
Q 3003 894 3003 1313 
Q 3003 1734 2745 1975 
Q 2488 2216 2034 2216 
z
M 1403 2484 
Q 997 2584 770 2862 
Q 544 3141 544 3541 
Q 544 4100 942 4425 
Q 1341 4750 2034 4750 
Q 2731 4750 3128 4425 
Q 3525 4100 3525 3541 
Q 3525 3141 3298 2862 
Q 3072 2584 2669 2484 
Q 3125 2378 3379 2068 
Q 3634 1759 3634 1313 
Q 3634 634 3220 271 
Q 2806 -91 2034 -91 
Q 1263 -91 848 271 
Q 434 634 434 1313 
Q 434 1759 690 2068 
Q 947 2378 1403 2484 
z
M 1172 3481 
Q 1172 3119 1398 2916 
Q 1625 2713 2034 2713 
Q 2441 2713 2670 2916 
Q 2900 3119 2900 3481 
Q 2900 3844 2670 4047 
Q 2441 4250 2034 4250 
Q 1625 4250 1398 4047 
Q 1172 3844 1172 3481 
z
" transform="scale(0.015625)"/>
      </defs>
      <use xlink:href="#DejaVuSans-38"/>
     </g>
    </g>
   </g>
  </g>
  <g id="axis3d_3">
   <g id="line2d_35">
    <path d="M 474.049501 321.867687 
L 483.485065 115.81907 
" style="fill: none; stroke: #ffffff; stroke-linecap: square"/>
   </g>
   <g id="Line3DCollection_3">
    <path d="M 474.592758 310.004332 
L 209.515669 233.525374 
L 44.289978 370.985739 
" style="fill: none; stroke: #d3d3d3; stroke-width: 0.8"/>
    <path d="M 475.321476 294.091002 
L 209.33847 218.115666 
L 43.505166 354.688611 
" style="fill: none; stroke: #d3d3d3; stroke-width: 0.8"/>
    <path d="M 476.05524 278.067462 
L 209.160101 202.604316 
L 42.714713 338.27433 
" style="fill: none; stroke: #d3d3d3; stroke-width: 0.8"/>
    <path d="M 476.794104 261.932564 
L 208.980553 186.990316 
L 41.918556 321.741626 
" style="fill: none; stroke: #d3d3d3; stroke-width: 0.8"/>
    <path d="M 477.538121 245.685143 
L 208.799812 171.272642 
L 41.116635 305.089215 
" style="fill: none; stroke: #d3d3d3; stroke-width: 0.8"/>
    <path d="M 478.287344 229.324017 
L 208.617867 155.45026 
L 40.308886 288.31579 
" style="fill: none; stroke: #d3d3d3; stroke-width: 0.8"/>
    <path d="M 479.04183 212.847989 
L 208.434707 139.52212 
L 39.495246 271.420029 
" style="fill: none; stroke: #d3d3d3; stroke-width: 0.8"/>
    <path d="M 479.801632 196.255844 
L 208.250317 123.487157 
L 38.67565 254.400587 
" style="fill: none; stroke: #d3d3d3; stroke-width: 0.8"/>
    <path d="M 480.566808 179.546349 
L 208.064687 107.344293 
L 37.850033 237.256102 
" style="fill: none; stroke: #d3d3d3; stroke-width: 0.8"/>
    <path d="M 481.337416 162.718257 
L 207.877804 91.092435 
L 37.018327 219.985191 
" style="fill: none; stroke: #d3d3d3; stroke-width: 0.8"/>
    <path d="M 482.113512 145.770299 
L 207.689654 74.730477 
L 36.180465 202.586449 
" style="fill: none; stroke: #d3d3d3; stroke-width: 0.8"/>
    <path d="M 482.895156 128.701191 
L 207.500226 58.257294 
L 35.336379 185.058453 
" style="fill: none; stroke: #d3d3d3; stroke-width: 0.8"/>
   </g>
   <g id="xtick_17">
    <g id="line2d_36">
     <path d="M 263.422703 249.937297 
" style="fill: none; stroke: #d3d3d3; stroke-width: 0.8; stroke-linecap: square"/>
    </g>
    <g id="line2d_37">
     <path d="M 472.367763 309.362385 
L 479.048055 311.289756 
" style="fill: none; stroke: #000000; stroke-width: 0.8; stroke-linecap: square"/>
    </g>
    <g id="text_17">
     <!-- W. Pawn -->
     <g transform="translate(484.798858 314.162855) scale(0.12 -0.12)">
      <defs>
       <path id="DejaVuSans-57" d="M 213 4666 
L 850 4666 
L 1831 722 
L 2809 4666 
L 3519 4666 
L 4500 722 
L 5478 4666 
L 6119 4666 
L 4947 0 
L 4153 0 
L 3169 4050 
L 2175 0 
L 1381 0 
L 213 4666 
z
" transform="scale(0.015625)"/>
       <path id="DejaVuSans-2e" d="M 684 794 
L 1344 794 
L 1344 0 
L 684 0 
L 684 794 
z
" transform="scale(0.015625)"/>
       <path id="DejaVuSans-20" transform="scale(0.015625)"/>
       <path id="DejaVuSans-50" d="M 1259 4147 
L 1259 2394 
L 2053 2394 
Q 2494 2394 2734 2622 
Q 2975 2850 2975 3272 
Q 2975 3691 2734 3919 
Q 2494 4147 2053 4147 
L 1259 4147 
z
M 628 4666 
L 2053 4666 
Q 2838 4666 3239 4311 
Q 3641 3956 3641 3272 
Q 3641 2581 3239 2228 
Q 2838 1875 2053 1875 
L 1259 1875 
L 1259 0 
L 628 0 
L 628 4666 
z
" transform="scale(0.015625)"/>
       <path id="DejaVuSans-77" d="M 269 3500 
L 844 3500 
L 1563 769 
L 2278 3500 
L 2956 3500 
L 3675 769 
L 4391 3500 
L 4966 3500 
L 4050 0 
L 3372 0 
L 2619 2869 
L 1863 0 
L 1184 0 
L 269 3500 
z
" transform="scale(0.015625)"/>
       <path id="DejaVuSans-6e" d="M 3513 2113 
L 3513 0 
L 2938 0 
L 2938 2094 
Q 2938 2591 2744 2837 
Q 2550 3084 2163 3084 
Q 1697 3084 1428 2787 
Q 1159 2491 1159 1978 
L 1159 0 
L 581 0 
L 581 3500 
L 1159 3500 
L 1159 2956 
Q 1366 3272 1645 3428 
Q 1925 3584 2291 3584 
Q 2894 3584 3203 3211 
Q 3513 2838 3513 2113 
z
" transform="scale(0.015625)"/>
      </defs>
      <use xlink:href="#DejaVuSans-57"/>
      <use xlink:href="#DejaVuSans-2e" x="87.376953"/>
      <use xlink:href="#DejaVuSans-20" x="119.164062"/>
      <use xlink:href="#DejaVuSans-50" x="150.951172"/>
      <use xlink:href="#DejaVuSans-61" x="206.753906"/>
      <use xlink:href="#DejaVuSans-77" x="268.033203"/>
      <use xlink:href="#DejaVuSans-6e" x="349.820312"/>
     </g>
    </g>
   </g>
   <g id="xtick_18">
    <g id="line2d_38">
     <path d="M 263.422703 249.937297 
" style="fill: none; stroke: #d3d3d3; stroke-width: 0.8; stroke-linecap: square"/>
    </g>
    <g id="line2d_39">
     <path d="M 473.088515 293.453179 
L 479.79274 295.368173 
" style="fill: none; stroke: #000000; stroke-width: 0.8; stroke-linecap: square"/>
    </g>
    <g id="text_18">
     <!-- W. Rook -->
     <g transform="translate(486.663854 298.281433) scale(0.12 -0.12)">
      <defs>
       <path id="DejaVuSans-52" d="M 2841 2188 
Q 3044 2119 3236 1894 
Q 3428 1669 3622 1275 
L 4263 0 
L 3584 0 
L 2988 1197 
Q 2756 1666 2539 1819 
Q 2322 1972 1947 1972 
L 1259 1972 
L 1259 0 
L 628 0 
L 628 4666 
L 2053 4666 
Q 2853 4666 3247 4331 
Q 3641 3997 3641 3322 
Q 3641 2881 3436 2590 
Q 3231 2300 2841 2188 
z
M 1259 4147 
L 1259 2491 
L 2053 2491 
Q 2509 2491 2742 2702 
Q 2975 2913 2975 3322 
Q 2975 3731 2742 3939 
Q 2509 4147 2053 4147 
L 1259 4147 
z
" transform="scale(0.015625)"/>
       <path id="DejaVuSans-6f" d="M 1959 3097 
Q 1497 3097 1228 2736 
Q 959 2375 959 1747 
Q 959 1119 1226 758 
Q 1494 397 1959 397 
Q 2419 397 2687 759 
Q 2956 1122 2956 1747 
Q 2956 2369 2687 2733 
Q 2419 3097 1959 3097 
z
M 1959 3584 
Q 2709 3584 3137 3096 
Q 3566 2609 3566 1747 
Q 3566 888 3137 398 
Q 2709 -91 1959 -91 
Q 1206 -91 779 398 
Q 353 888 353 1747 
Q 353 2609 779 3096 
Q 1206 3584 1959 3584 
z
" transform="scale(0.015625)"/>
       <path id="DejaVuSans-6b" d="M 581 4863 
L 1159 4863 
L 1159 1991 
L 2875 3500 
L 3609 3500 
L 1753 1863 
L 3688 0 
L 2938 0 
L 1159 1709 
L 1159 0 
L 581 0 
L 581 4863 
z
" transform="scale(0.015625)"/>
      </defs>
      <use xlink:href="#DejaVuSans-57"/>
      <use xlink:href="#DejaVuSans-2e" x="87.376953"/>
      <use xlink:href="#DejaVuSans-20" x="119.164062"/>
      <use xlink:href="#DejaVuSans-52" x="150.951172"/>
      <use xlink:href="#DejaVuSans-6f" x="215.933594"/>
      <use xlink:href="#DejaVuSans-6f" x="277.115234"/>
      <use xlink:href="#DejaVuSans-6b" x="338.296875"/>
     </g>
    </g>
   </g>
   <g id="xtick_19">
    <g id="line2d_40">
     <path d="M 263.422703 249.937297 
" style="fill: none; stroke: #d3d3d3; stroke-width: 0.8; stroke-linecap: square"/>
    </g>
    <g id="line2d_41">
     <path d="M 473.814257 277.433837 
L 480.542588 279.336235 
" style="fill: none; stroke: #000000; stroke-width: 0.8; stroke-linecap: square"/>
    </g>
    <g id="text_19">
     <!-- W. Knight -->
     <g transform="translate(482.864697 282.290361) scale(0.12 -0.12)">
      <defs>
       <path id="DejaVuSans-4b" d="M 628 4666 
L 1259 4666 
L 1259 2694 
L 3353 4666 
L 4166 4666 
L 1850 2491 
L 4331 0 
L 3500 0 
L 1259 2247 
L 1259 0 
L 628 0 
L 628 4666 
z
" transform="scale(0.015625)"/>
       <path id="DejaVuSans-69" d="M 603 3500 
L 1178 3500 
L 1178 0 
L 603 0 
L 603 3500 
z
M 603 4863 
L 1178 4863 
L 1178 4134 
L 603 4134 
L 603 4863 
z
" transform="scale(0.015625)"/>
       <path id="DejaVuSans-74" d="M 1172 4494 
L 1172 3500 
L 2356 3500 
L 2356 3053 
L 1172 3053 
L 1172 1153 
Q 1172 725 1289 603 
Q 1406 481 1766 481 
L 2356 481 
L 2356 0 
L 1766 0 
Q 1100 0 847 248 
Q 594 497 594 1153 
L 594 3053 
L 172 3053 
L 172 3500 
L 594 3500 
L 594 4494 
L 1172 4494 
z
" transform="scale(0.015625)"/>
      </defs>
      <use xlink:href="#DejaVuSans-57"/>
      <use xlink:href="#DejaVuSans-2e" x="87.376953"/>
      <use xlink:href="#DejaVuSans-20" x="119.164062"/>
      <use xlink:href="#DejaVuSans-4b" x="150.951172"/>
      <use xlink:href="#DejaVuSans-6e" x="216.527344"/>
      <use xlink:href="#DejaVuSans-69" x="279.90625"/>
      <use xlink:href="#DejaVuSans-67" x="307.689453"/>
      <use xlink:href="#DejaVuSans-68" x="371.166016"/>
      <use xlink:href="#DejaVuSans-74" x="434.544922"/>
     </g>
    </g>
   </g>
   <g id="xtick_20">
    <g id="line2d_42">
     <path d="M 263.422703 249.937297 
" style="fill: none; stroke: #d3d3d3; stroke-width: 0.8; stroke-linecap: square"/>
    </g>
    <g id="line2d_43">
     <path d="M 474.545041 261.303209 
L 481.29765 263.192791 
" style="fill: none; stroke: #000000; stroke-width: 0.8; stroke-linecap: square"/>
    </g>
    <g id="text_20">
     <!-- W. Bishop -->
     <g transform="translate(482.89926 266.188502) scale(0.12 -0.12)">
      <defs>
       <path id="DejaVuSans-42" d="M 1259 2228 
L 1259 519 
L 2272 519 
Q 2781 519 3026 730 
Q 3272 941 3272 1375 
Q 3272 1813 3026 2020 
Q 2781 2228 2272 2228 
L 1259 2228 
z
M 1259 4147 
L 1259 2741 
L 2194 2741 
Q 2656 2741 2882 2914 
Q 3109 3088 3109 3444 
Q 3109 3797 2882 3972 
Q 2656 4147 2194 4147 
L 1259 4147 
z
M 628 4666 
L 2241 4666 
Q 2963 4666 3353 4366 
Q 3744 4066 3744 3513 
Q 3744 3084 3544 2831 
Q 3344 2578 2956 2516 
Q 3422 2416 3680 2098 
Q 3938 1781 3938 1306 
Q 3938 681 3513 340 
Q 3088 0 2303 0 
L 628 0 
L 628 4666 
z
" transform="scale(0.015625)"/>
       <path id="DejaVuSans-73" d="M 2834 3397 
L 2834 2853 
Q 2591 2978 2328 3040 
Q 2066 3103 1784 3103 
Q 1356 3103 1142 2972 
Q 928 2841 928 2578 
Q 928 2378 1081 2264 
Q 1234 2150 1697 2047 
L 1894 2003 
Q 2506 1872 2764 1633 
Q 3022 1394 3022 966 
Q 3022 478 2636 193 
Q 2250 -91 1575 -91 
Q 1294 -91 989 -36 
Q 684 19 347 128 
L 347 722 
Q 666 556 975 473 
Q 1284 391 1588 391 
Q 1994 391 2212 530 
Q 2431 669 2431 922 
Q 2431 1156 2273 1281 
Q 2116 1406 1581 1522 
L 1381 1569 
Q 847 1681 609 1914 
Q 372 2147 372 2553 
Q 372 3047 722 3315 
Q 1072 3584 1716 3584 
Q 2034 3584 2315 3537 
Q 2597 3491 2834 3397 
z
" transform="scale(0.015625)"/>
       <path id="DejaVuSans-70" d="M 1159 525 
L 1159 -1331 
L 581 -1331 
L 581 3500 
L 1159 3500 
L 1159 2969 
Q 1341 3281 1617 3432 
Q 1894 3584 2278 3584 
Q 2916 3584 3314 3078 
Q 3713 2572 3713 1747 
Q 3713 922 3314 415 
Q 2916 -91 2278 -91 
Q 1894 -91 1617 61 
Q 1341 213 1159 525 
z
M 3116 1747 
Q 3116 2381 2855 2742 
Q 2594 3103 2138 3103 
Q 1681 3103 1420 2742 
Q 1159 2381 1159 1747 
Q 1159 1113 1420 752 
Q 1681 391 2138 391 
Q 2594 391 2855 752 
Q 3116 1113 3116 1747 
z
" transform="scale(0.015625)"/>
      </defs>
      <use xlink:href="#DejaVuSans-57"/>
      <use xlink:href="#DejaVuSans-2e" x="87.376953"/>
      <use xlink:href="#DejaVuSans-20" x="119.164062"/>
      <use xlink:href="#DejaVuSans-42" x="150.951172"/>
      <use xlink:href="#DejaVuSans-69" x="219.554688"/>
      <use xlink:href="#DejaVuSans-73" x="247.337891"/>
      <use xlink:href="#DejaVuSans-68" x="299.4375"/>
      <use xlink:href="#DejaVuSans-6f" x="362.816406"/>
      <use xlink:href="#DejaVuSans-70" x="423.998047"/>
     </g>
    </g>
   </g>
   <g id="xtick_21">
    <g id="line2d_44">
     <path d="M 263.422703 249.937297 
" style="fill: none; stroke: #d3d3d3; stroke-width: 0.8; stroke-linecap: square"/>
    </g>
    <g id="line2d_45">
     <path d="M 475.280919 245.060133 
L 482.057983 246.936674 
" style="fill: none; stroke: #000000; stroke-width: 0.8; stroke-linecap: square"/>
    </g>
    <g id="text_21">
     <!-- W. Queen -->
     <g transform="translate(484.243855 249.974698) scale(0.12 -0.12)">
      <defs>
       <path id="DejaVuSans-51" d="M 2522 4238 
Q 1834 4238 1429 3725 
Q 1025 3213 1025 2328 
Q 1025 1447 1429 934 
Q 1834 422 2522 422 
Q 3209 422 3611 934 
Q 4013 1447 4013 2328 
Q 4013 3213 3611 3725 
Q 3209 4238 2522 4238 
z
M 3406 84 
L 4238 -825 
L 3475 -825 
L 2784 -78 
Q 2681 -84 2626 -87 
Q 2572 -91 2522 -91 
Q 1538 -91 948 567 
Q 359 1225 359 2328 
Q 359 3434 948 4092 
Q 1538 4750 2522 4750 
Q 3503 4750 4090 4092 
Q 4678 3434 4678 2328 
Q 4678 1516 4351 937 
Q 4025 359 3406 84 
z
" transform="scale(0.015625)"/>
       <path id="DejaVuSans-75" d="M 544 1381 
L 544 3500 
L 1119 3500 
L 1119 1403 
Q 1119 906 1312 657 
Q 1506 409 1894 409 
Q 2359 409 2629 706 
Q 2900 1003 2900 1516 
L 2900 3500 
L 3475 3500 
L 3475 0 
L 2900 0 
L 2900 538 
Q 2691 219 2414 64 
Q 2138 -91 1772 -91 
Q 1169 -91 856 284 
Q 544 659 544 1381 
z
M 1991 3584 
L 1991 3584 
z
" transform="scale(0.015625)"/>
      </defs>
      <use xlink:href="#DejaVuSans-57"/>
      <use xlink:href="#DejaVuSans-2e" x="87.376953"/>
      <use xlink:href="#DejaVuSans-20" x="119.164062"/>
      <use xlink:href="#DejaVuSans-51" x="150.951172"/>
      <use xlink:href="#DejaVuSans-75" x="229.662109"/>
      <use xlink:href="#DejaVuSans-65" x="293.041016"/>
      <use xlink:href="#DejaVuSans-65" x="354.564453"/>
      <use xlink:href="#DejaVuSans-6e" x="416.087891"/>
     </g>
    </g>
   </g>
   <g id="xtick_22">
    <g id="line2d_46">
     <path d="M 263.422703 249.937297 
" style="fill: none; stroke: #d3d3d3; stroke-width: 0.8; stroke-linecap: square"/>
    </g>
    <g id="line2d_47">
     <path d="M 476.021945 228.703429 
L 482.82364 230.566699 
" style="fill: none; stroke: #000000; stroke-width: 0.8; stroke-linecap: square"/>
    </g>
    <g id="text_22">
     <!-- W. King -->
     <g transform="translate(491.613232 233.647779) scale(0.12 -0.12)">
      <use xlink:href="#DejaVuSans-57"/>
      <use xlink:href="#DejaVuSans-2e" x="87.376953"/>
      <use xlink:href="#DejaVuSans-20" x="119.164062"/>
      <use xlink:href="#DejaVuSans-4b" x="150.951172"/>
      <use xlink:href="#DejaVuSans-69" x="216.527344"/>
      <use xlink:href="#DejaVuSans-6e" x="244.310547"/>
      <use xlink:href="#DejaVuSans-67" x="307.689453"/>
     </g>
    </g>
   </g>
   <g id="xtick_23">
    <g id="line2d_48">
     <path d="M 263.422703 249.937297 
" style="fill: none; stroke: #d3d3d3; stroke-width: 0.8; stroke-linecap: square"/>
    </g>
    <g id="line2d_49">
     <path d="M 476.768172 212.231901 
L 483.59468 214.081666 
" style="fill: none; stroke: #000000; stroke-width: 0.8; stroke-linecap: square"/>
    </g>
    <g id="text_23">
     <!-- B. Pawn -->
     <g transform="translate(491.094954 217.206557) scale(0.12 -0.12)">
      <use xlink:href="#DejaVuSans-42"/>
      <use xlink:href="#DejaVuSans-2e" x="68.603516"/>
      <use xlink:href="#DejaVuSans-20" x="100.390625"/>
      <use xlink:href="#DejaVuSans-50" x="132.177734"/>
      <use xlink:href="#DejaVuSans-61" x="187.980469"/>
      <use xlink:href="#DejaVuSans-77" x="249.259766"/>
      <use xlink:href="#DejaVuSans-6e" x="331.046875"/>
     </g>
    </g>
   </g>
   <g id="xtick_24">
    <g id="line2d_50">
     <path d="M 263.422703 249.937297 
" style="fill: none; stroke: #d3d3d3; stroke-width: 0.8; stroke-linecap: square"/>
    </g>
    <g id="line2d_51">
     <path d="M 477.519657 195.644334 
L 484.371158 197.480358 
" style="fill: none; stroke: #000000; stroke-width: 0.8; stroke-linecap: square"/>
    </g>
    <g id="text_24">
     <!-- B. Rook -->
     <g transform="translate(492.995961 200.649828) scale(0.12 -0.12)">
      <use xlink:href="#DejaVuSans-42"/>
      <use xlink:href="#DejaVuSans-2e" x="68.603516"/>
      <use xlink:href="#DejaVuSans-20" x="100.390625"/>
      <use xlink:href="#DejaVuSans-52" x="132.177734"/>
      <use xlink:href="#DejaVuSans-6f" x="197.160156"/>
      <use xlink:href="#DejaVuSans-6f" x="258.341797"/>
      <use xlink:href="#DejaVuSans-6b" x="319.523438"/>
     </g>
    </g>
   </g>
   <g id="xtick_25">
    <g id="line2d_52">
     <path d="M 263.422703 249.937297 
" style="fill: none; stroke: #d3d3d3; stroke-width: 0.8; stroke-linecap: square"/>
    </g>
    <g id="line2d_53">
     <path d="M 478.276455 178.939498 
L 485.153132 180.76154 
" style="fill: none; stroke: #000000; stroke-width: 0.8; stroke-linecap: square"/>
    </g>
    <g id="text_25">
     <!-- B. Knight -->
     <g transform="translate(489.233192 183.976369) scale(0.12 -0.12)">
      <use xlink:href="#DejaVuSans-42"/>
      <use xlink:href="#DejaVuSans-2e" x="68.603516"/>
      <use xlink:href="#DejaVuSans-20" x="100.390625"/>
      <use xlink:href="#DejaVuSans-4b" x="132.177734"/>
      <use xlink:href="#DejaVuSans-6e" x="197.753906"/>
      <use xlink:href="#DejaVuSans-69" x="261.132812"/>
      <use xlink:href="#DejaVuSans-67" x="288.916016"/>
      <use xlink:href="#DejaVuSans-68" x="352.392578"/>
      <use xlink:href="#DejaVuSans-74" x="415.771484"/>
     </g>
    </g>
   </g>
   <g id="xtick_26">
    <g id="line2d_54">
     <path d="M 263.422703 249.937297 
" style="fill: none; stroke: #d3d3d3; stroke-width: 0.8; stroke-linecap: square"/>
    </g>
    <g id="line2d_55">
     <path d="M 479.038621 162.116146 
L 485.94066 163.92396 
" style="fill: none; stroke: #000000; stroke-width: 0.8; stroke-linecap: square"/>
    </g>
    <g id="text_26">
     <!-- B. Bishop -->
     <g transform="translate(489.304526 167.184942) scale(0.12 -0.12)">
      <use xlink:href="#DejaVuSans-42"/>
      <use xlink:href="#DejaVuSans-2e" x="68.603516"/>
      <use xlink:href="#DejaVuSans-20" x="100.390625"/>
      <use xlink:href="#DejaVuSans-42" x="132.177734"/>
      <use xlink:href="#DejaVuSans-69" x="200.78125"/>
      <use xlink:href="#DejaVuSans-73" x="228.564453"/>
      <use xlink:href="#DejaVuSans-68" x="280.664062"/>
      <use xlink:href="#DejaVuSans-6f" x="344.042969"/>
      <use xlink:href="#DejaVuSans-70" x="405.224609"/>
     </g>
    </g>
   </g>
   <g id="xtick_27">
    <g id="line2d_56">
     <path d="M 263.422703 249.937297 
" style="fill: none; stroke: #d3d3d3; stroke-width: 0.8; stroke-linecap: square"/>
    </g>
    <g id="line2d_57">
     <path d="M 479.806215 145.173012 
L 486.733803 146.966349 
" style="fill: none; stroke: #000000; stroke-width: 0.8; stroke-linecap: square"/>
    </g>
    <g id="text_27">
     <!-- B. Queen -->
     <g transform="translate(490.686281 150.274291) scale(0.12 -0.12)">
      <use xlink:href="#DejaVuSans-42"/>
      <use xlink:href="#DejaVuSans-2e" x="68.603516"/>
      <use xlink:href="#DejaVuSans-20" x="100.390625"/>
      <use xlink:href="#DejaVuSans-51" x="132.177734"/>
      <use xlink:href="#DejaVuSans-75" x="210.888672"/>
      <use xlink:href="#DejaVuSans-65" x="274.267578"/>
      <use xlink:href="#DejaVuSans-65" x="335.791016"/>
      <use xlink:href="#DejaVuSans-6e" x="397.314453"/>
     </g>
    </g>
   </g>
   <g id="xtick_28">
    <g id="line2d_58">
     <path d="M 263.422703 249.937297 
" style="fill: none; stroke: #d3d3d3; stroke-width: 0.8; stroke-linecap: square"/>
    </g>
    <g id="line2d_59">
     <path d="M 480.579293 128.108811 
L 487.53262 129.887418 
" style="fill: none; stroke: #000000; stroke-width: 0.8; stroke-linecap: square"/>
    </g>
    <g id="text_28">
     <!-- B. King -->
     <g transform="translate(498.093211 133.243141) scale(0.12 -0.12)">
      <use xlink:href="#DejaVuSans-42"/>
      <use xlink:href="#DejaVuSans-2e" x="68.603516"/>
      <use xlink:href="#DejaVuSans-20" x="100.390625"/>
      <use xlink:href="#DejaVuSans-4b" x="132.177734"/>
      <use xlink:href="#DejaVuSans-69" x="197.753906"/>
      <use xlink:href="#DejaVuSans-6e" x="225.537109"/>
      <use xlink:href="#DejaVuSans-67" x="288.916016"/>
     </g>
    </g>
   </g>
  </g>
  <g id="axes_1">
   <g id="Path3DCollection_1">
    <defs>
     <path id="mc7d791fae3" style="stroke: #7c4dff; stroke-width: 1.5"/>
    </defs>
    <g clip-path="url(#p9db1106fb9)">
     <use xlink:href="#mc7d791fae3" x="210.47588" y="194.148241" style="fill: #7c4dff; stroke: #7c4dff; stroke-width: 1.5"/>
    </g>
   </g>
   <g id="line2d_60">
    <path d="M 100.238525 308.560923 
L 318.80113 376.072196 
" clip-path="url(#p9db1106fb9)" style="fill: none; stroke-dasharray: 1.85,0.8; stroke-dashoffset: 0; stroke: #ff0000; stroke-width: 0.5"/>
   </g>
   <g id="line2d_61">
    <path d="M 318.80113 376.072196 
L 419.74558 278.567346 
" clip-path="url(#p9db1106fb9)" style="fill: none; stroke-dasharray: 1.85,0.8; stroke-dashoffset: 0; stroke: #0000ff; stroke-width: 0.5"/>
   </g>
   <g id="line2d_62">
    <path d="M 318.471639 403.116136 
L 318.80113 376.072196 
" clip-path="url(#p9db1106fb9)" style="fill: none; stroke-dasharray: 1.85,0.8; stroke-dashoffset: 0; stroke: #008000; stroke-width: 0.5"/>
   </g>
   <g id="line2d_63">
    <path d="M 76.90972 260.007528 
L 163.640258 286.108895 
" clip-path="url(#p9db1106fb9)" style="fill: none; stroke-dasharray: 1.85,0.8; stroke-dashoffset: 0; stroke: #ff0000; stroke-width: 0.5"/>
   </g>
   <g id="line2d_64">
    <path d="M 163.640258 286.108895 
L 291.747464 178.556257 
" clip-path="url(#p9db1106fb9)" style="fill: none; stroke-dasharray: 1.85,0.8; stroke-dashoffset: 0; stroke: #0000ff; stroke-width: 0.5"/>
   </g>
   <g id="line2d_65">
    <path d="M 165.64479 379.227757 
L 163.640258 286.108895 
" clip-path="url(#p9db1106fb9)" style="fill: none; stroke-dasharray: 1.85,0.8; stroke-dashoffset: 0; stroke: #008000; stroke-width: 0.5"/>
   </g>
   <g id="line2d_66">
    <path d="M 138.239788 194.888623 
L 223.516355 219.199772 
" clip-path="url(#p9db1106fb9)" style="fill: none; stroke-dasharray: 1.85,0.8; stroke-dashoffset: 0; stroke: #ff0000; stroke-width: 0.5"/>
   </g>
   <g id="line2d_67">
    <path d="M 223.516355 219.199772 
L 291.843627 162.45409 
" clip-path="url(#p9db1106fb9)" style="fill: none; stroke-dasharray: 1.85,0.8; stroke-dashoffset: 0; stroke: #0000ff; stroke-width: 0.5"/>
   </g>
   <g id="line2d_68">
    <path d="M 224.430667 326.934358 
L 223.516355 219.199772 
" clip-path="url(#p9db1106fb9)" style="fill: none; stroke-dasharray: 1.85,0.8; stroke-dashoffset: 0; stroke: #008000; stroke-width: 0.5"/>
   </g>
   <g id="line2d_69">
    <path d="M 158.054172 179.412933 
L 210.47588 194.148241 
" clip-path="url(#p9db1106fb9)" style="fill: none; stroke-dasharray: 1.85,0.8; stroke-dashoffset: 0; stroke: #ff0000; stroke-width: 0.5"/>
   </g>
   <g id="line2d_70">
    <path d="M 210.47588 194.148241 
L 260.143258 153.86237 
" clip-path="url(#p9db1106fb9)" style="fill: none; stroke-dasharray: 1.85,0.8; stroke-dashoffset: 0; stroke: #0000ff; stroke-width: 0.5"/>
   </g>
   <g id="line2d_71">
    <path d="M 211.669507 300.719315 
L 210.47588 194.148241 
" clip-path="url(#p9db1106fb9)" style="fill: none; stroke-dasharray: 1.85,0.8; stroke-dashoffset: 0; stroke: #008000; stroke-width: 0.5"/>
   </g>
   <g id="line2d_72">
    <path d="M 117.496852 194.113802 
L 170.810906 209.36509 
" clip-path="url(#p9db1106fb9)" style="fill: none; stroke-dasharray: 1.85,0.8; stroke-dashoffset: 0; stroke: #ff0000; stroke-width: 0.5"/>
   </g>
   <g id="line2d_73">
    <path d="M 170.810906 209.36509 
L 260.132152 137.716494 
" clip-path="url(#p9db1106fb9)" style="fill: none; stroke-dasharray: 1.85,0.8; stroke-dashoffset: 0; stroke: #0000ff; stroke-width: 0.5"/>
   </g>
   <g id="line2d_74">
    <path d="M 173.262564 334.104501 
L 170.810906 209.36509 
" clip-path="url(#p9db1106fb9)" style="fill: none; stroke-dasharray: 1.85,0.8; stroke-dashoffset: 0; stroke: #008000; stroke-width: 0.5"/>
   </g>
   <g id="line2d_75">
    <path d="M 136.029544 111.436464 
L 189.722717 125.899286 
" clip-path="url(#p9db1106fb9)" style="fill: none; stroke-dasharray: 1.85,0.8; stroke-dashoffset: 0; stroke: #ff0000; stroke-width: 0.5"/>
   </g>
   <g id="line2d_76">
    <path d="M 189.722717 125.899286 
L 260.086964 72.024374 
" clip-path="url(#p9db1106fb9)" style="fill: none; stroke-dasharray: 1.85,0.8; stroke-dashoffset: 0; stroke: #0000ff; stroke-width: 0.5"/>
   </g>
   <g id="line2d_77">
    <path d="M 192.663345 317.240397 
L 189.722717 125.899286 
" clip-path="url(#p9db1106fb9)" style="fill: none; stroke-dasharray: 1.85,0.8; stroke-dashoffset: 0; stroke: #008000; stroke-width: 0.5"/>
   </g>
   <g id="Path3DCollection_2">
    <defs>
     <path id="m43214123e3" style="stroke: #39adb5; stroke-width: 1.5"/>
    </defs>
    <g clip-path="url(#p9db1106fb9)">
     <use xlink:href="#m43214123e3" x="223.516355" y="219.199772" style="fill: #39adb5; stroke: #39adb5; stroke-width: 1.5"/>
    </g>
   </g>
   <g id="text_29">
    <!-- ♜ -->
    <g style="fill: #808080" transform="translate(311.815164 380.025413) scale(0.18 -0.18)">
     <defs>
      <path id="DejaVuSans-265c" d="M 3869 3613 
L 3869 3906 
L 1869 3906 
L 1869 3613 
L 3869 3613 
z
M 4100 559 
L 4100 906 
L 1638 906 
L 1638 559 
L 4100 559 
z
M 2425 4669 
L 3291 4669 
L 3291 4184 
L 3825 4184 
L 3825 4669 
L 4669 4669 
L 4669 4163 
L 4309 4163 
L 4309 3713 
L 4022 3244 
L 4022 1416 
L 4309 950 
L 4309 503 
L 4669 503 
L 4669 -6 
L 1066 -6 
L 1066 503 
L 1425 503 
L 1425 950 
L 1716 1425 
L 1719 1425 
L 1719 3241 
L 1716 3241 
L 1425 3713 
L 1425 4163 
L 1066 4163 
L 1066 4669 
L 1894 4669 
L 1894 4184 
L 2425 4184 
L 2425 4669 
z
M 4497 169 
L 4497 341 
L 1241 341 
L 1241 169 
L 4497 169 
z
" transform="scale(0.015625)"/>
     </defs>
     <use xlink:href="#DejaVuSans-265c"/>
    </g>
   </g>
   <g id="text_30">
    <!-- ♚ -->
    <g style="fill: #808080" transform="translate(156.600572 290.033051) scale(0.18 -0.18)">
     <defs>
      <path id="DejaVuSans-265a" d="M 2650 3022 
Q 2653 3031 2659 3041 
Q 2550 3175 2391 3263 
Q 2159 3391 1915 3391 
Q 1672 3391 1442 3264 
Q 1213 3138 1081 2905 
Q 950 2672 950 2422 
Q 950 2169 1078 1941 
Q 1206 1713 1438 1588 
Q 1506 1544 1578 1519 
L 2650 1519 
L 2650 3022 
z
M 3091 1519 
L 4159 1519 
Q 4234 1544 4303 1588 
Q 4534 1713 4661 1941 
Q 4788 2169 4788 2422 
Q 4788 2672 4658 2905 
Q 4528 3138 4298 3264 
Q 4069 3391 3822 3391 
Q 3581 3391 3350 3263 
Q 3188 3175 3081 3041 
Q 3088 3031 3091 3022 
L 3091 1519 
z
M 1688 1197 
L 1688 250 
L 4053 250 
L 4053 1197 
L 1688 1197 
z
M 1431 0 
L 1431 1197 
Q 1300 1238 1181 1306 
Q 966 1475 797 1781 
Q 628 2088 628 2422 
Q 628 2759 800 3067 
Q 972 3375 1281 3540 
Q 1591 3706 1916 3706 
Q 2166 3706 2403 3609 
L 2403 3616 
Q 2403 3728 2459 3826 
Q 2516 3925 2616 3981 
Q 2656 4003 2706 4016 
L 2706 4184 
L 2369 4184 
L 2369 4403 
L 2706 4403 
L 2706 4675 
L 3034 4675 
L 3034 4403 
L 3372 4403 
L 3372 4184 
L 3034 4184 
L 3034 4016 
Q 3084 4003 3125 3981 
Q 3222 3925 3280 3826 
Q 3338 3728 3338 3616 
L 3338 3609 
Q 3575 3706 3822 3706 
Q 4147 3706 4456 3540 
Q 4766 3375 4937 3067 
Q 5109 2759 5109 2422 
Q 5109 2088 4940 1781 
Q 4772 1475 4559 1306 
Q 4438 1238 4309 1197 
L 4309 0 
L 1431 0 
z
M 2578 3591 
Q 2578 3513 2617 3445 
Q 2656 3378 2726 3339 
Q 2797 3300 2869 3300 
Q 2944 3300 3014 3339 
Q 3084 3378 3121 3445 
Q 3159 3513 3159 3591 
Q 3159 3666 3121 3736 
Q 3084 3806 3014 3842 
Q 2944 3878 2869 3878 
Q 2797 3878 2726 3842 
Q 2656 3806 2617 3736 
Q 2578 3666 2578 3591 
z
M 3891 1034 
L 3891 409 
L 1850 409 
L 1850 1034 
L 3891 1034 
z
M 2494 1678 
L 1619 1678 
Q 1563 1700 1509 1738 
Q 1319 1841 1216 2030 
Q 1113 2219 1113 2428 
Q 1113 2634 1219 2826 
Q 1325 3019 1511 3123 
Q 1697 3228 1897 3228 
Q 2091 3228 2281 3125 
Q 2409 3053 2500 2941 
Q 2494 2931 2494 2925 
L 2494 1678 
z
M 3247 2925 
Q 3247 2931 3241 2941 
Q 3331 3053 3459 3125 
Q 3650 3228 3841 3228 
Q 4044 3228 4230 3123 
Q 4416 3019 4522 2826 
Q 4628 2634 4628 2428 
Q 4628 2219 4525 2030 
Q 4422 1841 4231 1738 
Q 4175 1700 4119 1678 
L 3247 1678 
L 3247 2925 
z
" transform="scale(0.015625)"/>
     </defs>
     <use xlink:href="#DejaVuSans-265a"/>
    </g>
   </g>
   <g id="text_31">
    <!-- ♟ -->
    <g transform="translate(216.694779 222.991446) scale(0.18 -0.18)">
     <defs>
      <path id="DejaVuSans-265f" d="M 984 -3 
Q 950 175 950 356 
Q 950 856 1208 1314 
Q 1466 1772 1922 2016 
Q 2041 2081 2166 2128 
Q 2072 2219 2006 2338 
Q 1875 2572 1875 2828 
Q 1875 3088 2008 3323 
Q 2141 3559 2381 3691 
Q 2466 3734 2556 3766 
Q 2475 3825 2428 3916 
Q 2356 4038 2356 4169 
Q 2356 4300 2425 4420 
Q 2494 4541 2616 4606 
Q 2738 4672 2866 4672 
Q 2991 4672 3112 4606 
Q 3234 4541 3304 4420 
Q 3375 4300 3375 4169 
Q 3375 4038 3309 3916 
Q 3256 3825 3178 3763 
Q 3263 3734 3356 3691 
Q 3591 3559 3725 3323 
Q 3859 3088 3859 2828 
Q 3859 2572 3731 2338 
Q 3663 2219 3569 2128 
Q 3688 2078 3806 2016 
Q 4266 1772 4525 1314 
Q 4784 856 4784 356 
Q 4784 175 4747 -3 
L 984 -3 
z
" transform="scale(0.015625)"/>
     </defs>
     <use xlink:href="#DejaVuSans-265f"/>
    </g>
   </g>
   <g id="text_32">
    <!-- ♟ -->
    <g transform="translate(203.762125 197.869658) scale(0.18 -0.18)">
     <use xlink:href="#DejaVuSans-265f"/>
    </g>
   </g>
   <g id="text_33">
    <!-- ♜ -->
    <g transform="translate(163.917049 213.184119) scale(0.18 -0.18)">
     <use xlink:href="#DejaVuSans-265c"/>
    </g>
   </g>
   <g id="text_34">
    <!-- ♚ -->
    <g transform="translate(182.810479 129.704495) scale(0.18 -0.18)">
     <use xlink:href="#DejaVuSans-265a"/>
    </g>
   </g>
   <g id="Path3DCollection_3">
    <defs>
     <path id="mece71b8302" style="stroke: #546e7a; stroke-width: 1.5"/>
    </defs>
    <g clip-path="url(#p9db1106fb9)">
     <use xlink:href="#mece71b8302" x="170.810906" y="209.36509" style="fill: #546e7a; stroke: #546e7a; stroke-width: 1.5"/>
    </g>
   </g>
   <g id="Path3DCollection_4">
    <defs>
     <path id="m5ee4e3b691" style="stroke: #91b859; stroke-width: 1.5"/>
    </defs>
    <g clip-path="url(#p9db1106fb9)">
     <use xlink:href="#m5ee4e3b691" x="189.722717" y="125.899286" style="fill: #91b859; stroke: #91b859; stroke-width: 1.5"/>
    </g>
   </g>
   <g id="Path3DCollection_5">
    <defs>
     <path id="m90584d280f" style="stroke: #ffcb6b; stroke-width: 1.5"/>
    </defs>
    <g clip-path="url(#p9db1106fb9)">
     <use xlink:href="#m90584d280f" x="318.80113" y="376.072196" style="fill: #ffcb6b; stroke: #ffcb6b; stroke-width: 1.5"/>
    </g>
   </g>
   <g id="Path3DCollection_6">
    <defs>
     <path id="m1bc90980c4" style="stroke: #ff5370; stroke-width: 1.5"/>
    </defs>
    <g clip-path="url(#p9db1106fb9)">
     <use xlink:href="#m1bc90980c4" x="163.640258" y="286.108895" style="fill: #ff5370; stroke: #ff5370; stroke-width: 1.5"/>
    </g>
   </g>
  </g>
 </g>
 <defs>
  <clipPath id="p9db1106fb9">
   <rect x="7.2" y="7.2" width="498.96" height="498.96"/>
  </clipPath>
 </defs>
</svg>
